<mxfile host="app.diagrams.net" modified="2020-11-06T06:19:41.787Z" agent="5.0 (Windows NT 10.0; Win64; x64) AppleWebKit/537.36 (KHTML, like Gecko) Chrome/86.0.4240.183 Safari/537.36" etag="pByMrsmPFAiil_9oa4W2" version="13.9.2" type="github">
  <diagram id="C5RBs43oDa-KdzZeNtuy" name="Page-1">
    <mxGraphModel dx="1303" dy="687" grid="1" gridSize="10" guides="1" tooltips="1" connect="1" arrows="1" fold="1" page="1" pageScale="1" pageWidth="827" pageHeight="1169" math="0" shadow="0">
      <root>
        <mxCell id="WIyWlLk6GJQsqaUBKTNV-0" />
        <mxCell id="WIyWlLk6GJQsqaUBKTNV-1" parent="WIyWlLk6GJQsqaUBKTNV-0" />
        <mxCell id="MCxPVOXAKpprgy56A_kJ-4" value="" style="edgeStyle=orthogonalEdgeStyle;rounded=0;orthogonalLoop=1;jettySize=auto;html=1;entryX=0.5;entryY=0;entryDx=0;entryDy=0;" edge="1" parent="WIyWlLk6GJQsqaUBKTNV-1" source="MCxPVOXAKpprgy56A_kJ-1" target="MCxPVOXAKpprgy56A_kJ-15">
          <mxGeometry relative="1" as="geometry">
            <mxPoint x="155" y="440" as="targetPoint" />
          </mxGeometry>
        </mxCell>
        <mxCell id="MCxPVOXAKpprgy56A_kJ-1" value="筆をつかむモーション" style="rounded=0;whiteSpace=wrap;html=1;" vertex="1" parent="WIyWlLk6GJQsqaUBKTNV-1">
          <mxGeometry x="75" y="360" width="150" height="30" as="geometry" />
        </mxCell>
        <mxCell id="MCxPVOXAKpprgy56A_kJ-8" value="" style="edgeStyle=orthogonalEdgeStyle;rounded=0;orthogonalLoop=1;jettySize=auto;html=1;" edge="1" parent="WIyWlLk6GJQsqaUBKTNV-1" source="MCxPVOXAKpprgy56A_kJ-5" target="MCxPVOXAKpprgy56A_kJ-7">
          <mxGeometry relative="1" as="geometry" />
        </mxCell>
        <mxCell id="MCxPVOXAKpprgy56A_kJ-47" style="edgeStyle=orthogonalEdgeStyle;rounded=0;orthogonalLoop=1;jettySize=auto;html=1;entryX=0.5;entryY=0;entryDx=0;entryDy=0;" edge="1" parent="WIyWlLk6GJQsqaUBKTNV-1" source="MCxPVOXAKpprgy56A_kJ-5" target="MCxPVOXAKpprgy56A_kJ-48">
          <mxGeometry relative="1" as="geometry">
            <mxPoint x="150" y="670" as="targetPoint" />
            <Array as="points">
              <mxPoint x="225" y="620" />
              <mxPoint x="150" y="620" />
            </Array>
          </mxGeometry>
        </mxCell>
        <mxCell id="MCxPVOXAKpprgy56A_kJ-5" value="リスト型の中身が&lt;br&gt;なくなるまでループ" style="rhombus;whiteSpace=wrap;html=1;" vertex="1" parent="WIyWlLk6GJQsqaUBKTNV-1">
          <mxGeometry x="75" y="470" width="150" height="80" as="geometry" />
        </mxCell>
        <mxCell id="MCxPVOXAKpprgy56A_kJ-46" style="edgeStyle=orthogonalEdgeStyle;rounded=0;orthogonalLoop=1;jettySize=auto;html=1;" edge="1" parent="WIyWlLk6GJQsqaUBKTNV-1" source="MCxPVOXAKpprgy56A_kJ-7">
          <mxGeometry relative="1" as="geometry">
            <mxPoint x="150" y="460" as="targetPoint" />
            <Array as="points">
              <mxPoint x="150" y="610" />
              <mxPoint x="70" y="610" />
              <mxPoint x="70" y="460" />
            </Array>
          </mxGeometry>
        </mxCell>
        <mxCell id="MCxPVOXAKpprgy56A_kJ-7" value="move_arm" style="shape=process;whiteSpace=wrap;html=1;backgroundOutline=1;" vertex="1" parent="WIyWlLk6GJQsqaUBKTNV-1">
          <mxGeometry x="90" y="570" width="120" height="30" as="geometry" />
        </mxCell>
        <mxCell id="MCxPVOXAKpprgy56A_kJ-18" value="" style="edgeStyle=orthogonalEdgeStyle;rounded=0;orthogonalLoop=1;jettySize=auto;html=1;entryX=0.5;entryY=0;entryDx=0;entryDy=0;" edge="1" parent="WIyWlLk6GJQsqaUBKTNV-1" source="MCxPVOXAKpprgy56A_kJ-15" target="MCxPVOXAKpprgy56A_kJ-5">
          <mxGeometry relative="1" as="geometry" />
        </mxCell>
        <mxCell id="MCxPVOXAKpprgy56A_kJ-15" value="csvファイルを開く" style="rounded=0;whiteSpace=wrap;html=1;" vertex="1" parent="WIyWlLk6GJQsqaUBKTNV-1">
          <mxGeometry x="85" y="400" width="130" height="50" as="geometry" />
        </mxCell>
        <mxCell id="MCxPVOXAKpprgy56A_kJ-31" value="" style="edgeStyle=orthogonalEdgeStyle;rounded=0;orthogonalLoop=1;jettySize=auto;html=1;" edge="1" parent="WIyWlLk6GJQsqaUBKTNV-1" source="MCxPVOXAKpprgy56A_kJ-28" target="MCxPVOXAKpprgy56A_kJ-29">
          <mxGeometry relative="1" as="geometry" />
        </mxCell>
        <mxCell id="MCxPVOXAKpprgy56A_kJ-28" value="開始" style="strokeWidth=2;html=1;shape=mxgraph.flowchart.terminator;whiteSpace=wrap;" vertex="1" parent="WIyWlLk6GJQsqaUBKTNV-1">
          <mxGeometry x="100" y="130" width="100" height="40" as="geometry" />
        </mxCell>
        <mxCell id="MCxPVOXAKpprgy56A_kJ-33" value="" style="edgeStyle=orthogonalEdgeStyle;rounded=0;orthogonalLoop=1;jettySize=auto;html=1;" edge="1" parent="WIyWlLk6GJQsqaUBKTNV-1" source="MCxPVOXAKpprgy56A_kJ-29" target="MCxPVOXAKpprgy56A_kJ-32">
          <mxGeometry relative="1" as="geometry" />
        </mxCell>
        <mxCell id="MCxPVOXAKpprgy56A_kJ-29" value="csvファイルが&lt;br&gt;書かれた変数を宣言" style="rounded=0;whiteSpace=wrap;html=1;" vertex="1" parent="WIyWlLk6GJQsqaUBKTNV-1">
          <mxGeometry x="90" y="180" width="120" height="60" as="geometry" />
        </mxCell>
        <mxCell id="MCxPVOXAKpprgy56A_kJ-30" style="edgeStyle=orthogonalEdgeStyle;rounded=0;orthogonalLoop=1;jettySize=auto;html=1;exitX=0.5;exitY=1;exitDx=0;exitDy=0;" edge="1" parent="WIyWlLk6GJQsqaUBKTNV-1" source="MCxPVOXAKpprgy56A_kJ-29" target="MCxPVOXAKpprgy56A_kJ-29">
          <mxGeometry relative="1" as="geometry" />
        </mxCell>
        <mxCell id="MCxPVOXAKpprgy56A_kJ-35" value="" style="edgeStyle=orthogonalEdgeStyle;rounded=0;orthogonalLoop=1;jettySize=auto;html=1;entryX=0.5;entryY=0;entryDx=0;entryDy=0;" edge="1" parent="WIyWlLk6GJQsqaUBKTNV-1" source="MCxPVOXAKpprgy56A_kJ-32" target="MCxPVOXAKpprgy56A_kJ-36">
          <mxGeometry relative="1" as="geometry">
            <mxPoint x="150" y="370" as="targetPoint" />
          </mxGeometry>
        </mxCell>
        <mxCell id="MCxPVOXAKpprgy56A_kJ-32" value="関数の作成" style="rounded=0;whiteSpace=wrap;html=1;" vertex="1" parent="WIyWlLk6GJQsqaUBKTNV-1">
          <mxGeometry x="90" y="250" width="120" height="30" as="geometry" />
        </mxCell>
        <mxCell id="MCxPVOXAKpprgy56A_kJ-44" value="" style="edgeStyle=orthogonalEdgeStyle;rounded=0;orthogonalLoop=1;jettySize=auto;html=1;" edge="1" parent="WIyWlLk6GJQsqaUBKTNV-1" source="MCxPVOXAKpprgy56A_kJ-36" target="MCxPVOXAKpprgy56A_kJ-1">
          <mxGeometry relative="1" as="geometry" />
        </mxCell>
        <mxCell id="MCxPVOXAKpprgy56A_kJ-36" value="アームを初期位置に移動" style="rounded=0;whiteSpace=wrap;html=1;" vertex="1" parent="WIyWlLk6GJQsqaUBKTNV-1">
          <mxGeometry x="90" y="290" width="120" height="60" as="geometry" />
        </mxCell>
        <mxCell id="MCxPVOXAKpprgy56A_kJ-48" value="1" style="ellipse;whiteSpace=wrap;html=1;aspect=fixed;" vertex="1" parent="WIyWlLk6GJQsqaUBKTNV-1">
          <mxGeometry x="130" y="630" width="40" height="40" as="geometry" />
        </mxCell>
        <mxCell id="MCxPVOXAKpprgy56A_kJ-60" value="" style="edgeStyle=orthogonalEdgeStyle;rounded=0;orthogonalLoop=1;jettySize=auto;html=1;entryX=0.5;entryY=0;entryDx=0;entryDy=0;" edge="1" parent="WIyWlLk6GJQsqaUBKTNV-1" source="MCxPVOXAKpprgy56A_kJ-50" target="MCxPVOXAKpprgy56A_kJ-51">
          <mxGeometry relative="1" as="geometry">
            <mxPoint x="420" y="260" as="targetPoint" />
          </mxGeometry>
        </mxCell>
        <mxCell id="MCxPVOXAKpprgy56A_kJ-50" value="1" style="ellipse;whiteSpace=wrap;html=1;aspect=fixed;" vertex="1" parent="WIyWlLk6GJQsqaUBKTNV-1">
          <mxGeometry x="332.5" y="120" width="40" height="40" as="geometry" />
        </mxCell>
        <mxCell id="MCxPVOXAKpprgy56A_kJ-63" value="" style="edgeStyle=orthogonalEdgeStyle;rounded=0;orthogonalLoop=1;jettySize=auto;html=1;entryX=0.5;entryY=0;entryDx=0;entryDy=0;" edge="1" parent="WIyWlLk6GJQsqaUBKTNV-1" source="MCxPVOXAKpprgy56A_kJ-51" target="MCxPVOXAKpprgy56A_kJ-53">
          <mxGeometry relative="1" as="geometry" />
        </mxCell>
        <mxCell id="MCxPVOXAKpprgy56A_kJ-69" style="edgeStyle=orthogonalEdgeStyle;rounded=0;orthogonalLoop=1;jettySize=auto;html=1;" edge="1" parent="WIyWlLk6GJQsqaUBKTNV-1" source="MCxPVOXAKpprgy56A_kJ-51">
          <mxGeometry relative="1" as="geometry">
            <mxPoint x="360" y="520" as="targetPoint" />
            <Array as="points">
              <mxPoint x="450" y="210" />
              <mxPoint x="450" y="490" />
              <mxPoint x="360" y="490" />
            </Array>
          </mxGeometry>
        </mxCell>
        <mxCell id="MCxPVOXAKpprgy56A_kJ-51" value="csvの名前の入った&lt;br&gt;リスト型ループ" style="rhombus;whiteSpace=wrap;html=1;" vertex="1" parent="WIyWlLk6GJQsqaUBKTNV-1">
          <mxGeometry x="285" y="180" width="135" height="60" as="geometry" />
        </mxCell>
        <mxCell id="MCxPVOXAKpprgy56A_kJ-64" value="" style="edgeStyle=orthogonalEdgeStyle;rounded=0;orthogonalLoop=1;jettySize=auto;html=1;" edge="1" parent="WIyWlLk6GJQsqaUBKTNV-1" source="MCxPVOXAKpprgy56A_kJ-53" target="MCxPVOXAKpprgy56A_kJ-55">
          <mxGeometry relative="1" as="geometry" />
        </mxCell>
        <mxCell id="MCxPVOXAKpprgy56A_kJ-53" value="csvファイルを開く" style="rounded=0;whiteSpace=wrap;html=1;" vertex="1" parent="WIyWlLk6GJQsqaUBKTNV-1">
          <mxGeometry x="287.5" y="250" width="130" height="30" as="geometry" />
        </mxCell>
        <mxCell id="MCxPVOXAKpprgy56A_kJ-54" value="筆を水に濡らす" style="text;html=1;strokeColor=none;fillColor=none;align=center;verticalAlign=middle;whiteSpace=wrap;rounded=0;" vertex="1" parent="WIyWlLk6GJQsqaUBKTNV-1">
          <mxGeometry x="142.5" y="460" width="130" height="20" as="geometry" />
        </mxCell>
        <mxCell id="MCxPVOXAKpprgy56A_kJ-66" value="" style="edgeStyle=orthogonalEdgeStyle;rounded=0;orthogonalLoop=1;jettySize=auto;html=1;" edge="1" parent="WIyWlLk6GJQsqaUBKTNV-1" source="MCxPVOXAKpprgy56A_kJ-55" target="MCxPVOXAKpprgy56A_kJ-56">
          <mxGeometry relative="1" as="geometry" />
        </mxCell>
        <mxCell id="MCxPVOXAKpprgy56A_kJ-68" style="edgeStyle=orthogonalEdgeStyle;rounded=0;orthogonalLoop=1;jettySize=auto;html=1;entryX=0.5;entryY=0;entryDx=0;entryDy=0;" edge="1" parent="WIyWlLk6GJQsqaUBKTNV-1" source="MCxPVOXAKpprgy56A_kJ-55" target="MCxPVOXAKpprgy56A_kJ-51">
          <mxGeometry relative="1" as="geometry">
            <mxPoint x="260" y="170" as="targetPoint" />
            <Array as="points">
              <mxPoint x="440" y="350" />
              <mxPoint x="440" y="480" />
              <mxPoint x="260" y="480" />
              <mxPoint x="260" y="170" />
              <mxPoint x="352" y="170" />
            </Array>
          </mxGeometry>
        </mxCell>
        <mxCell id="MCxPVOXAKpprgy56A_kJ-55" value="リスト型の中身が&lt;br&gt;なくなるまでループ" style="rhombus;whiteSpace=wrap;html=1;" vertex="1" parent="WIyWlLk6GJQsqaUBKTNV-1">
          <mxGeometry x="272.5" y="310" width="160" height="80" as="geometry" />
        </mxCell>
        <mxCell id="MCxPVOXAKpprgy56A_kJ-67" style="edgeStyle=orthogonalEdgeStyle;rounded=0;orthogonalLoop=1;jettySize=auto;html=1;" edge="1" parent="WIyWlLk6GJQsqaUBKTNV-1" source="MCxPVOXAKpprgy56A_kJ-56">
          <mxGeometry relative="1" as="geometry">
            <mxPoint x="352" y="290" as="targetPoint" />
            <Array as="points">
              <mxPoint x="352" y="470" />
              <mxPoint x="270" y="470" />
              <mxPoint x="270" y="290" />
            </Array>
          </mxGeometry>
        </mxCell>
        <mxCell id="MCxPVOXAKpprgy56A_kJ-56" value="move_arm" style="shape=process;whiteSpace=wrap;html=1;backgroundOutline=1;" vertex="1" parent="WIyWlLk6GJQsqaUBKTNV-1">
          <mxGeometry x="292.5" y="420" width="120" height="30" as="geometry" />
        </mxCell>
        <mxCell id="MCxPVOXAKpprgy56A_kJ-70" value="コロナを書く" style="text;html=1;strokeColor=none;fillColor=none;align=center;verticalAlign=middle;whiteSpace=wrap;rounded=0;" vertex="1" parent="WIyWlLk6GJQsqaUBKTNV-1">
          <mxGeometry x="372.5" y="170" width="76" height="20" as="geometry" />
        </mxCell>
        <mxCell id="MCxPVOXAKpprgy56A_kJ-71" value="" style="edgeStyle=orthogonalEdgeStyle;rounded=0;orthogonalLoop=1;jettySize=auto;html=1;entryX=0.5;entryY=0;entryDx=0;entryDy=0;" edge="1" parent="WIyWlLk6GJQsqaUBKTNV-1" target="MCxPVOXAKpprgy56A_kJ-74">
          <mxGeometry relative="1" as="geometry">
            <mxPoint x="552.5" y="170" as="sourcePoint" />
            <mxPoint x="620" y="270" as="targetPoint" />
          </mxGeometry>
        </mxCell>
        <mxCell id="MCxPVOXAKpprgy56A_kJ-72" value="" style="edgeStyle=orthogonalEdgeStyle;rounded=0;orthogonalLoop=1;jettySize=auto;html=1;entryX=0.5;entryY=0;entryDx=0;entryDy=0;" edge="1" parent="WIyWlLk6GJQsqaUBKTNV-1" source="MCxPVOXAKpprgy56A_kJ-74" target="MCxPVOXAKpprgy56A_kJ-76">
          <mxGeometry relative="1" as="geometry" />
        </mxCell>
        <mxCell id="MCxPVOXAKpprgy56A_kJ-87" style="edgeStyle=orthogonalEdgeStyle;rounded=0;orthogonalLoop=1;jettySize=auto;html=1;entryX=0.5;entryY=0;entryDx=0;entryDy=0;entryPerimeter=0;" edge="1" parent="WIyWlLk6GJQsqaUBKTNV-1" source="MCxPVOXAKpprgy56A_kJ-74" target="MCxPVOXAKpprgy56A_kJ-86">
          <mxGeometry relative="1" as="geometry">
            <mxPoint x="553" y="500" as="targetPoint" />
            <Array as="points">
              <mxPoint x="650" y="220" />
              <mxPoint x="650" y="500" />
              <mxPoint x="553" y="500" />
            </Array>
          </mxGeometry>
        </mxCell>
        <mxCell id="MCxPVOXAKpprgy56A_kJ-74" value="csvの名前の入った&lt;br&gt;リスト型ループ" style="rhombus;whiteSpace=wrap;html=1;" vertex="1" parent="WIyWlLk6GJQsqaUBKTNV-1">
          <mxGeometry x="485" y="190" width="135" height="60" as="geometry" />
        </mxCell>
        <mxCell id="MCxPVOXAKpprgy56A_kJ-75" value="" style="edgeStyle=orthogonalEdgeStyle;rounded=0;orthogonalLoop=1;jettySize=auto;html=1;" edge="1" parent="WIyWlLk6GJQsqaUBKTNV-1" source="MCxPVOXAKpprgy56A_kJ-76" target="MCxPVOXAKpprgy56A_kJ-79">
          <mxGeometry relative="1" as="geometry" />
        </mxCell>
        <mxCell id="MCxPVOXAKpprgy56A_kJ-76" value="csvファイルを開く" style="rounded=0;whiteSpace=wrap;html=1;" vertex="1" parent="WIyWlLk6GJQsqaUBKTNV-1">
          <mxGeometry x="487.5" y="260" width="130" height="30" as="geometry" />
        </mxCell>
        <mxCell id="MCxPVOXAKpprgy56A_kJ-77" value="" style="edgeStyle=orthogonalEdgeStyle;rounded=0;orthogonalLoop=1;jettySize=auto;html=1;" edge="1" parent="WIyWlLk6GJQsqaUBKTNV-1" source="MCxPVOXAKpprgy56A_kJ-79" target="MCxPVOXAKpprgy56A_kJ-81">
          <mxGeometry relative="1" as="geometry" />
        </mxCell>
        <mxCell id="MCxPVOXAKpprgy56A_kJ-78" style="edgeStyle=orthogonalEdgeStyle;rounded=0;orthogonalLoop=1;jettySize=auto;html=1;entryX=0.5;entryY=0;entryDx=0;entryDy=0;" edge="1" parent="WIyWlLk6GJQsqaUBKTNV-1" source="MCxPVOXAKpprgy56A_kJ-79" target="MCxPVOXAKpprgy56A_kJ-74">
          <mxGeometry relative="1" as="geometry">
            <mxPoint x="460" y="180" as="targetPoint" />
            <Array as="points">
              <mxPoint x="640" y="360" />
              <mxPoint x="640" y="490" />
              <mxPoint x="460" y="490" />
              <mxPoint x="460" y="180" />
              <mxPoint x="552" y="180" />
            </Array>
          </mxGeometry>
        </mxCell>
        <mxCell id="MCxPVOXAKpprgy56A_kJ-79" value="リスト型の中身が&lt;br&gt;なくなるまでループ" style="rhombus;whiteSpace=wrap;html=1;" vertex="1" parent="WIyWlLk6GJQsqaUBKTNV-1">
          <mxGeometry x="472.5" y="320" width="160" height="80" as="geometry" />
        </mxCell>
        <mxCell id="MCxPVOXAKpprgy56A_kJ-80" style="edgeStyle=orthogonalEdgeStyle;rounded=0;orthogonalLoop=1;jettySize=auto;html=1;" edge="1" parent="WIyWlLk6GJQsqaUBKTNV-1" source="MCxPVOXAKpprgy56A_kJ-81">
          <mxGeometry relative="1" as="geometry">
            <mxPoint x="552" y="300" as="targetPoint" />
            <Array as="points">
              <mxPoint x="552" y="480" />
              <mxPoint x="470" y="480" />
              <mxPoint x="470" y="300" />
            </Array>
          </mxGeometry>
        </mxCell>
        <mxCell id="MCxPVOXAKpprgy56A_kJ-81" value="move_arm" style="shape=process;whiteSpace=wrap;html=1;backgroundOutline=1;" vertex="1" parent="WIyWlLk6GJQsqaUBKTNV-1">
          <mxGeometry x="492.5" y="430" width="120" height="30" as="geometry" />
        </mxCell>
        <mxCell id="MCxPVOXAKpprgy56A_kJ-82" value="ロスを書く" style="text;html=1;strokeColor=none;fillColor=none;align=center;verticalAlign=middle;whiteSpace=wrap;rounded=0;" vertex="1" parent="WIyWlLk6GJQsqaUBKTNV-1">
          <mxGeometry x="572.5" y="170" width="76" height="20" as="geometry" />
        </mxCell>
        <mxCell id="MCxPVOXAKpprgy56A_kJ-83" value="2" style="ellipse;whiteSpace=wrap;html=1;aspect=fixed;" vertex="1" parent="WIyWlLk6GJQsqaUBKTNV-1">
          <mxGeometry x="340" y="520" width="40" height="40" as="geometry" />
        </mxCell>
        <mxCell id="MCxPVOXAKpprgy56A_kJ-85" value="" style="edgeStyle=orthogonalEdgeStyle;rounded=0;orthogonalLoop=1;jettySize=auto;html=1;" edge="1" parent="WIyWlLk6GJQsqaUBKTNV-1" source="MCxPVOXAKpprgy56A_kJ-84">
          <mxGeometry relative="1" as="geometry">
            <mxPoint x="553" y="190" as="targetPoint" />
          </mxGeometry>
        </mxCell>
        <mxCell id="MCxPVOXAKpprgy56A_kJ-84" value="2" style="ellipse;whiteSpace=wrap;html=1;aspect=fixed;" vertex="1" parent="WIyWlLk6GJQsqaUBKTNV-1">
          <mxGeometry x="532.5" y="120" width="40" height="40" as="geometry" />
        </mxCell>
        <mxCell id="MCxPVOXAKpprgy56A_kJ-86" value="終了" style="strokeWidth=2;html=1;shape=mxgraph.flowchart.terminator;whiteSpace=wrap;" vertex="1" parent="WIyWlLk6GJQsqaUBKTNV-1">
          <mxGeometry x="502.5" y="510" width="100" height="40" as="geometry" />
        </mxCell>
      </root>
    </mxGraphModel>
  </diagram>
</mxfile>
